<svg xmlns="http://www.w3.org/2000/svg" width="60.755" height="60.766" viewBox="0 0 60.755 60.766"><path d="M39.754,38.6h2.312v-2.38A4.231,4.231,0,0,1,46.285,32h2.042V30.126a4.231,4.231,0,0,1,4.219-4.219H92.071a4.232,4.232,0,0,1,4.219,4.219V69.77a4.232,4.232,0,0,1-4.219,4.219H91.32v1.873A4.232,4.232,0,0,1,87.1,80.081H85.936v2.371a4.231,4.231,0,0,1-4.219,4.219H39.753a4.232,4.232,0,0,1-4.219-4.219V42.818A4.231,4.231,0,0,1,39.753,38.6ZM92.67,70.369a.861.861,0,0,0,.253-.591V30.126a.824.824,0,0,0-.253-.591.86.86,0,0,0-.591-.253H52.563a.825.825,0,0,0-.591.253.858.858,0,0,0-.253.591V69.77a.824.824,0,0,0,.253.591.858.858,0,0,0,.591.253H92.071A.849.849,0,0,0,92.67,70.369ZM87.7,76.461a.861.861,0,0,0,.253-.591V73.989H52.563a4.232,4.232,0,0,1-4.219-4.219V35.375H46.3a.825.825,0,0,0-.591.253.858.858,0,0,0-.253.591V75.862a.824.824,0,0,0,.253.591.858.858,0,0,0,.591.253H87.1a.871.871,0,0,0,.6-.245ZM38.91,82.453a.824.824,0,0,0,.253.591.858.858,0,0,0,.591.253H81.717a.824.824,0,0,0,.591-.253.858.858,0,0,0,.253-.591V80.081H46.293a4.231,4.231,0,0,1-4.219-4.219V41.974H39.762a.824.824,0,0,0-.591.253.858.858,0,0,0-.253.591V82.453Z" transform="translate(-35.534 -25.906)" fill="#454545"/></svg>